<mxfile host="app.diagrams.net" modified="2023-10-20T23:39:55.633Z" agent="Mozilla/5.0 (Macintosh; Intel Mac OS X 10_15_7) AppleWebKit/537.36 (KHTML, like Gecko) Chrome/117.0.0.0 Safari/537.36" etag="e53miwhnUAahUHSeJTq2" version="22.0.5" type="github">
  <diagram name="Page-1" id="bPTVf-BsiwisX3_Dfg2u">
    <mxGraphModel dx="1306" dy="830" grid="1" gridSize="10" guides="1" tooltips="1" connect="1" arrows="1" fold="1" page="1" pageScale="1" pageWidth="850" pageHeight="1100" math="0" shadow="0">
      <root>
        <mxCell id="0" />
        <mxCell id="1" parent="0" />
        <mxCell id="dGZ3Kz2iyMmezDVCTP1Q-74" value="" style="rounded=1;whiteSpace=wrap;html=1;fillColor=none;dashed=1;dashPattern=8 8;strokeColor=#3399FF;strokeWidth=2;" parent="1" vertex="1">
          <mxGeometry x="380" y="490" width="460" height="510" as="geometry" />
        </mxCell>
        <mxCell id="ZKfquur338v5OgfnKdS0-27" value="Customer" style="shape=umlActor;verticalLabelPosition=bottom;verticalAlign=top;html=1;outlineConnect=0;" parent="1" vertex="1">
          <mxGeometry x="39" y="70" width="30" height="60" as="geometry" />
        </mxCell>
        <mxCell id="dGZ3Kz2iyMmezDVCTP1Q-17" style="edgeStyle=orthogonalEdgeStyle;rounded=0;orthogonalLoop=1;jettySize=auto;html=1;entryX=0;entryY=0.5;entryDx=0;entryDy=0;" parent="1" source="ZKfquur338v5OgfnKdS0-29" target="dGZ3Kz2iyMmezDVCTP1Q-8" edge="1">
          <mxGeometry relative="1" as="geometry" />
        </mxCell>
        <mxCell id="ZKfquur338v5OgfnKdS0-29" value="store" style="verticalLabelPosition=bottom;html=1;verticalAlign=top;align=center;strokeColor=none;fillColor=#00BEF2;shape=mxgraph.azure.laptop;pointerEvents=1;" parent="1" vertex="1">
          <mxGeometry x="201" y="85" width="50" height="30" as="geometry" />
        </mxCell>
        <mxCell id="dGZ3Kz2iyMmezDVCTP1Q-4" style="edgeStyle=orthogonalEdgeStyle;rounded=0;orthogonalLoop=1;jettySize=auto;html=1;entryX=0.08;entryY=0.5;entryDx=0;entryDy=0;entryPerimeter=0;" parent="1" source="ZKfquur338v5OgfnKdS0-27" target="ZKfquur338v5OgfnKdS0-29" edge="1">
          <mxGeometry relative="1" as="geometry" />
        </mxCell>
        <mxCell id="dGZ3Kz2iyMmezDVCTP1Q-6" value="Place order phone/instore" style="text;html=1;strokeColor=none;fillColor=none;align=center;verticalAlign=middle;whiteSpace=wrap;rounded=0;" parent="1" vertex="1">
          <mxGeometry x="91" y="66" width="110" height="30" as="geometry" />
        </mxCell>
        <mxCell id="dGZ3Kz2iyMmezDVCTP1Q-19" style="edgeStyle=orthogonalEdgeStyle;rounded=0;orthogonalLoop=1;jettySize=auto;html=1;entryX=0;entryY=0.5;entryDx=0;entryDy=0;" parent="1" source="dGZ3Kz2iyMmezDVCTP1Q-8" target="dGZ3Kz2iyMmezDVCTP1Q-18" edge="1">
          <mxGeometry relative="1" as="geometry" />
        </mxCell>
        <mxCell id="dGZ3Kz2iyMmezDVCTP1Q-8" value="Core Communications Service" style="ellipse;whiteSpace=wrap;html=1;" parent="1" vertex="1">
          <mxGeometry x="319" y="60" width="120" height="80" as="geometry" />
        </mxCell>
        <mxCell id="dGZ3Kz2iyMmezDVCTP1Q-20" style="edgeStyle=orthogonalEdgeStyle;rounded=0;orthogonalLoop=1;jettySize=auto;html=1;entryX=0;entryY=0.5;entryDx=0;entryDy=0;" parent="1" source="dGZ3Kz2iyMmezDVCTP1Q-18" target="dGZ3Kz2iyMmezDVCTP1Q-26" edge="1">
          <mxGeometry relative="1" as="geometry">
            <mxPoint x="719" y="100" as="targetPoint" />
          </mxGeometry>
        </mxCell>
        <mxCell id="dGZ3Kz2iyMmezDVCTP1Q-21" value="EMAIL" style="edgeLabel;html=1;align=center;verticalAlign=middle;resizable=0;points=[];" parent="dGZ3Kz2iyMmezDVCTP1Q-20" vertex="1" connectable="0">
          <mxGeometry x="-0.1" relative="1" as="geometry">
            <mxPoint as="offset" />
          </mxGeometry>
        </mxCell>
        <mxCell id="dGZ3Kz2iyMmezDVCTP1Q-27" style="edgeStyle=elbowEdgeStyle;rounded=0;orthogonalLoop=1;jettySize=auto;html=1;elbow=vertical;endArrow=none;endFill=0;entryX=0.5;entryY=0;entryDx=0;entryDy=0;" parent="1" source="dGZ3Kz2iyMmezDVCTP1Q-18" target="dGZ3Kz2iyMmezDVCTP1Q-33" edge="1">
          <mxGeometry relative="1" as="geometry">
            <mxPoint x="340" y="230" as="targetPoint" />
          </mxGeometry>
        </mxCell>
        <mxCell id="dGZ3Kz2iyMmezDVCTP1Q-29" value="SMS" style="edgeLabel;html=1;align=center;verticalAlign=middle;resizable=0;points=[];" parent="dGZ3Kz2iyMmezDVCTP1Q-27" vertex="1" connectable="0">
          <mxGeometry x="-0.1056" y="1" relative="1" as="geometry">
            <mxPoint as="offset" />
          </mxGeometry>
        </mxCell>
        <mxCell id="dGZ3Kz2iyMmezDVCTP1Q-18" value="Preferred channel SMS/EMAIL?" style="rhombus;whiteSpace=wrap;html=1;" parent="1" vertex="1">
          <mxGeometry x="509" y="20" width="130" height="160" as="geometry" />
        </mxCell>
        <mxCell id="dGZ3Kz2iyMmezDVCTP1Q-37" style="edgeStyle=orthogonalEdgeStyle;rounded=0;orthogonalLoop=1;jettySize=auto;html=1;entryX=1;entryY=0.5;entryDx=0;entryDy=0;" parent="1" source="dGZ3Kz2iyMmezDVCTP1Q-23" target="dGZ3Kz2iyMmezDVCTP1Q-36" edge="1">
          <mxGeometry relative="1" as="geometry" />
        </mxCell>
        <mxCell id="dGZ3Kz2iyMmezDVCTP1Q-38" value="No" style="edgeLabel;html=1;align=center;verticalAlign=middle;resizable=0;points=[];" parent="dGZ3Kz2iyMmezDVCTP1Q-37" vertex="1" connectable="0">
          <mxGeometry x="-0.2" y="2" relative="1" as="geometry">
            <mxPoint as="offset" />
          </mxGeometry>
        </mxCell>
        <mxCell id="dGZ3Kz2iyMmezDVCTP1Q-40" style="edgeStyle=orthogonalEdgeStyle;rounded=0;orthogonalLoop=1;jettySize=auto;html=1;entryX=0.5;entryY=0;entryDx=0;entryDy=0;" parent="1" source="dGZ3Kz2iyMmezDVCTP1Q-23" target="dGZ3Kz2iyMmezDVCTP1Q-39" edge="1">
          <mxGeometry relative="1" as="geometry" />
        </mxCell>
        <mxCell id="dGZ3Kz2iyMmezDVCTP1Q-41" value="Yes" style="edgeLabel;html=1;align=center;verticalAlign=middle;resizable=0;points=[];" parent="dGZ3Kz2iyMmezDVCTP1Q-40" vertex="1" connectable="0">
          <mxGeometry x="0.05" y="-1" relative="1" as="geometry">
            <mxPoint as="offset" />
          </mxGeometry>
        </mxCell>
        <mxCell id="dGZ3Kz2iyMmezDVCTP1Q-23" value="User opted in TRANSACTIONAL list?" style="rhombus;whiteSpace=wrap;html=1;" parent="1" vertex="1">
          <mxGeometry x="181" y="380" width="160" height="140" as="geometry" />
        </mxCell>
        <mxCell id="dGZ3Kz2iyMmezDVCTP1Q-26" value="New PCM Template?" style="rounded=1;whiteSpace=wrap;html=1;" parent="1" vertex="1">
          <mxGeometry x="720" y="70" width="120" height="60" as="geometry" />
        </mxCell>
        <mxCell id="dGZ3Kz2iyMmezDVCTP1Q-35" style="edgeStyle=orthogonalEdgeStyle;rounded=0;orthogonalLoop=1;jettySize=auto;html=1;entryX=0.5;entryY=0;entryDx=0;entryDy=0;" parent="1" source="dGZ3Kz2iyMmezDVCTP1Q-33" target="dGZ3Kz2iyMmezDVCTP1Q-66" edge="1">
          <mxGeometry relative="1" as="geometry">
            <mxPoint x="270" y="270" as="targetPoint" />
          </mxGeometry>
        </mxCell>
        <mxCell id="dGZ3Kz2iyMmezDVCTP1Q-45" style="edgeStyle=orthogonalEdgeStyle;rounded=0;orthogonalLoop=1;jettySize=auto;html=1;entryX=0.5;entryY=0;entryDx=0;entryDy=0;" parent="1" source="dGZ3Kz2iyMmezDVCTP1Q-33" target="dGZ3Kz2iyMmezDVCTP1Q-72" edge="1">
          <mxGeometry relative="1" as="geometry">
            <mxPoint x="550" y="280" as="targetPoint" />
          </mxGeometry>
        </mxCell>
        <mxCell id="dGZ3Kz2iyMmezDVCTP1Q-33" value="" style="ellipse;whiteSpace=wrap;html=1;aspect=fixed;" parent="1" vertex="1">
          <mxGeometry x="374" y="210" width="10" height="10" as="geometry" />
        </mxCell>
        <mxCell id="dGZ3Kz2iyMmezDVCTP1Q-42" style="edgeStyle=elbowEdgeStyle;rounded=0;orthogonalLoop=1;jettySize=auto;html=1;entryX=0;entryY=0.5;entryDx=0;entryDy=0;elbow=vertical;exitX=0.5;exitY=1;exitDx=0;exitDy=0;" parent="1" source="dGZ3Kz2iyMmezDVCTP1Q-43" target="dGZ3Kz2iyMmezDVCTP1Q-39" edge="1">
          <mxGeometry relative="1" as="geometry">
            <mxPoint x="70" y="640" as="sourcePoint" />
            <Array as="points">
              <mxPoint x="130" y="630" />
              <mxPoint x="110" y="700" />
              <mxPoint x="130" y="650" />
            </Array>
          </mxGeometry>
        </mxCell>
        <mxCell id="dGZ3Kz2iyMmezDVCTP1Q-44" value="" style="edgeStyle=orthogonalEdgeStyle;rounded=0;orthogonalLoop=1;jettySize=auto;html=1;" parent="1" source="dGZ3Kz2iyMmezDVCTP1Q-36" target="dGZ3Kz2iyMmezDVCTP1Q-43" edge="1">
          <mxGeometry relative="1" as="geometry" />
        </mxCell>
        <mxCell id="dGZ3Kz2iyMmezDVCTP1Q-36" value="Optin phone to TRANSACTIONAL list via Kaleyra optin API" style="rounded=1;whiteSpace=wrap;html=1;" parent="1" vertex="1">
          <mxGeometry x="8" y="420" width="121" height="60" as="geometry" />
        </mxCell>
        <mxCell id="dGZ3Kz2iyMmezDVCTP1Q-68" style="edgeStyle=orthogonalEdgeStyle;rounded=0;orthogonalLoop=1;jettySize=auto;html=1;entryX=0.5;entryY=0;entryDx=0;entryDy=0;" parent="1" source="dGZ3Kz2iyMmezDVCTP1Q-39" target="dGZ3Kz2iyMmezDVCTP1Q-70" edge="1">
          <mxGeometry relative="1" as="geometry">
            <mxPoint x="261.5" y="710" as="targetPoint" />
          </mxGeometry>
        </mxCell>
        <mxCell id="dGZ3Kz2iyMmezDVCTP1Q-39" value="Trigger Template Broadcast" style="rounded=1;whiteSpace=wrap;html=1;" parent="1" vertex="1">
          <mxGeometry x="201" y="600" width="121" height="60" as="geometry" />
        </mxCell>
        <mxCell id="dGZ3Kz2iyMmezDVCTP1Q-43" value="Optin phone to TRANSACTIONAL in OneView?" style="rounded=1;whiteSpace=wrap;html=1;" parent="1" vertex="1">
          <mxGeometry x="9" y="530" width="120" height="60" as="geometry" />
        </mxCell>
        <mxCell id="dGZ3Kz2iyMmezDVCTP1Q-62" style="edgeStyle=orthogonalEdgeStyle;rounded=0;orthogonalLoop=1;jettySize=auto;html=1;entryX=0.5;entryY=0;entryDx=0;entryDy=0;" parent="1" source="dGZ3Kz2iyMmezDVCTP1Q-46" target="dGZ3Kz2iyMmezDVCTP1Q-48" edge="1">
          <mxGeometry relative="1" as="geometry" />
        </mxCell>
        <mxCell id="dGZ3Kz2iyMmezDVCTP1Q-46" value="Trigger Multistep program STOREOPTIN (same to be used for all store acquisitions?)" style="rounded=1;whiteSpace=wrap;html=1;" parent="1" vertex="1">
          <mxGeometry x="460" y="390" width="180" height="60" as="geometry" />
        </mxCell>
        <mxCell id="dGZ3Kz2iyMmezDVCTP1Q-57" style="edgeStyle=orthogonalEdgeStyle;rounded=0;orthogonalLoop=1;jettySize=auto;html=1;entryX=0.5;entryY=0;entryDx=0;entryDy=0;" parent="1" source="dGZ3Kz2iyMmezDVCTP1Q-47" target="dGZ3Kz2iyMmezDVCTP1Q-58" edge="1">
          <mxGeometry relative="1" as="geometry">
            <mxPoint x="550" y="900" as="targetPoint" />
          </mxGeometry>
        </mxCell>
        <mxCell id="dGZ3Kz2iyMmezDVCTP1Q-53" style="edgeStyle=orthogonalEdgeStyle;rounded=0;orthogonalLoop=1;jettySize=auto;html=1;entryX=0.5;entryY=0;entryDx=0;entryDy=0;" parent="1" source="dGZ3Kz2iyMmezDVCTP1Q-48" target="dGZ3Kz2iyMmezDVCTP1Q-54" edge="1">
          <mxGeometry relative="1" as="geometry">
            <mxPoint x="550" y="700" as="targetPoint" />
          </mxGeometry>
        </mxCell>
        <mxCell id="dGZ3Kz2iyMmezDVCTP1Q-61" value="No" style="edgeLabel;html=1;align=center;verticalAlign=middle;resizable=0;points=[];" parent="dGZ3Kz2iyMmezDVCTP1Q-53" vertex="1" connectable="0">
          <mxGeometry y="-1" relative="1" as="geometry">
            <mxPoint as="offset" />
          </mxGeometry>
        </mxCell>
        <mxCell id="dGZ3Kz2iyMmezDVCTP1Q-59" style="edgeStyle=orthogonalEdgeStyle;rounded=0;orthogonalLoop=1;jettySize=auto;html=1;entryX=0;entryY=0.5;entryDx=0;entryDy=0;" parent="1" source="dGZ3Kz2iyMmezDVCTP1Q-48" target="dGZ3Kz2iyMmezDVCTP1Q-52" edge="1">
          <mxGeometry relative="1" as="geometry" />
        </mxCell>
        <mxCell id="dGZ3Kz2iyMmezDVCTP1Q-60" value="Yes" style="edgeLabel;html=1;align=center;verticalAlign=middle;resizable=0;points=[];" parent="dGZ3Kz2iyMmezDVCTP1Q-59" vertex="1" connectable="0">
          <mxGeometry x="0.025" y="2" relative="1" as="geometry">
            <mxPoint as="offset" />
          </mxGeometry>
        </mxCell>
        <mxCell id="dGZ3Kz2iyMmezDVCTP1Q-48" value="User opted in PROMOTIONAL list?" style="rhombus;whiteSpace=wrap;html=1;" parent="1" vertex="1">
          <mxGeometry x="470" y="500" width="160" height="140" as="geometry" />
        </mxCell>
        <mxCell id="dGZ3Kz2iyMmezDVCTP1Q-52" value="Do nothing" style="rounded=1;whiteSpace=wrap;html=1;" parent="1" vertex="1">
          <mxGeometry x="710" y="540" width="120" height="60" as="geometry" />
        </mxCell>
        <mxCell id="dGZ3Kz2iyMmezDVCTP1Q-56" style="edgeStyle=orthogonalEdgeStyle;rounded=0;orthogonalLoop=1;jettySize=auto;html=1;entryX=0.5;entryY=0;entryDx=0;entryDy=0;" parent="1" source="dGZ3Kz2iyMmezDVCTP1Q-54" target="dGZ3Kz2iyMmezDVCTP1Q-47" edge="1">
          <mxGeometry relative="1" as="geometry" />
        </mxCell>
        <mxCell id="dGZ3Kz2iyMmezDVCTP1Q-54" value="Send SMS asking if user wants to opt in" style="rounded=1;whiteSpace=wrap;html=1;" parent="1" vertex="1">
          <mxGeometry x="490" y="690" width="120" height="60" as="geometry" />
        </mxCell>
        <mxCell id="dGZ3Kz2iyMmezDVCTP1Q-58" value="Send confirmation SMS if user gets opted in" style="rounded=1;whiteSpace=wrap;html=1;" parent="1" vertex="1">
          <mxGeometry x="490" y="924" width="120" height="60" as="geometry" />
        </mxCell>
        <mxCell id="dGZ3Kz2iyMmezDVCTP1Q-67" style="edgeStyle=orthogonalEdgeStyle;rounded=0;orthogonalLoop=1;jettySize=auto;html=1;entryX=0.5;entryY=0;entryDx=0;entryDy=0;" parent="1" source="dGZ3Kz2iyMmezDVCTP1Q-66" target="dGZ3Kz2iyMmezDVCTP1Q-23" edge="1">
          <mxGeometry relative="1" as="geometry" />
        </mxCell>
        <mxCell id="dGZ3Kz2iyMmezDVCTP1Q-66" value="Order Confirmation Process" style="rounded=1;whiteSpace=wrap;html=1;" parent="1" vertex="1">
          <mxGeometry x="201" y="280" width="120" height="60" as="geometry" />
        </mxCell>
        <mxCell id="dGZ3Kz2iyMmezDVCTP1Q-71" value="" style="group" parent="1" vertex="1" connectable="0">
          <mxGeometry x="150" y="710" width="174" height="63" as="geometry" />
        </mxCell>
        <mxCell id="dGZ3Kz2iyMmezDVCTP1Q-69" value="Text Y/N" style="outlineConnect=0;dashed=0;verticalLabelPosition=bottom;verticalAlign=top;align=center;html=1;shape=mxgraph.aws3.mobile_client;fillColor=#D2D3D3;gradientColor=none;" parent="dGZ3Kz2iyMmezDVCTP1Q-71" vertex="1">
          <mxGeometry width="40.5" height="63" as="geometry" />
        </mxCell>
        <mxCell id="dGZ3Kz2iyMmezDVCTP1Q-70" value="SMS with info delivered" style="rounded=1;whiteSpace=wrap;html=1;" parent="dGZ3Kz2iyMmezDVCTP1Q-71" vertex="1">
          <mxGeometry x="48" y="3" width="126" height="60" as="geometry" />
        </mxCell>
        <mxCell id="dGZ3Kz2iyMmezDVCTP1Q-73" style="edgeStyle=orthogonalEdgeStyle;rounded=0;orthogonalLoop=1;jettySize=auto;html=1;entryX=0.5;entryY=0;entryDx=0;entryDy=0;" parent="1" source="dGZ3Kz2iyMmezDVCTP1Q-72" target="dGZ3Kz2iyMmezDVCTP1Q-46" edge="1">
          <mxGeometry relative="1" as="geometry" />
        </mxCell>
        <mxCell id="dGZ3Kz2iyMmezDVCTP1Q-72" value="Promotional opt process" style="rounded=1;whiteSpace=wrap;html=1;" parent="1" vertex="1">
          <mxGeometry x="490" y="280" width="120" height="60" as="geometry" />
        </mxCell>
        <mxCell id="dGZ3Kz2iyMmezDVCTP1Q-75" value="Multistep program in Kaleyra" style="text;html=1;strokeColor=none;fillColor=none;align=center;verticalAlign=middle;whiteSpace=wrap;rounded=0;fontColor=#66B2FF;fontStyle=1" parent="1" vertex="1">
          <mxGeometry x="584" y="490" width="200" height="30" as="geometry" />
        </mxCell>
        <mxCell id="xyxQtKgxWQUahfnz9HQZ-1" value="" style="group" vertex="1" connectable="0" parent="1">
          <mxGeometry x="439" y="797" width="174" height="63" as="geometry" />
        </mxCell>
        <mxCell id="ZKfquur338v5OgfnKdS0-7" value="Text Y/N" style="outlineConnect=0;dashed=0;verticalLabelPosition=bottom;verticalAlign=top;align=center;html=1;shape=mxgraph.aws3.mobile_client;fillColor=#D2D3D3;gradientColor=none;" parent="xyxQtKgxWQUahfnz9HQZ-1" vertex="1">
          <mxGeometry width="40.5" height="63" as="geometry" />
        </mxCell>
        <mxCell id="dGZ3Kz2iyMmezDVCTP1Q-47" value="Listen for Y/N customer response and optin in case of Y" style="rounded=1;whiteSpace=wrap;html=1;" parent="xyxQtKgxWQUahfnz9HQZ-1" vertex="1">
          <mxGeometry x="48" y="3" width="126" height="60" as="geometry" />
        </mxCell>
      </root>
    </mxGraphModel>
  </diagram>
</mxfile>
